<svg width="580" height="131" xmlns="http://www.w3.org/2000/svg">
 <!-- Created with Method Draw - http://github.com/duopixel/Method-Draw/ -->

 <g>
  <title>Layer 1</title>
  <ellipse ry="59" rx="277.000008" id="svg_15" cy="69.5" cx="282.500008" stroke-width="1.5" stroke="#000" fill="#559E84"/>
  <text style="cursor: move;" transform="matrix(1.67764, 0, 0, 1.76599, -144.536, -35.2446)" xml:space="preserve" text-anchor="start" font-family="Helvetica, Arial, sans-serif" font-size="24" id="svg_16" y="69.969969" x="196.809931" stroke-opacity="null" stroke-width="0" stroke="#000" fill="#FFF093">点击发送评论</text>
  <g id="svg_40">
   <g transform="matrix(3.85414, 0, 0, 4.29163, -33.0437, -58.5853)" id="svg_21">
    <g id="svg_23">
     <path fill="#E6C36A" id="svg_24" fill-rule="evenodd" clip-rule="evenodd" d="m41.935997,29.593023l8,0l0,-2l-8,0l0,2zm10,-5.999998l-12,0c-1.105003,0 -2,0.894999 -2,1.999998l0,9.000002c0,1.105 0.894997,2 2,2l6.5,0l4.5,3l0,-3l1,0c1.105003,0 2,-0.895 2,-2l0,-9.000002c0,-1.105 -0.894997,-1.999998 -2,-1.999998zm0,10c0,0.552002 -0.447998,1 -1,1l-2,0l0,1.5l-2.5,-1.5l-5.5,0c-0.552002,0 -1,-0.447998 -1,-1l0,-7.000002c0,-0.551998 0.447998,-1 1,-1l10,0c0.552002,0 1,0.448002 1,1l0,7.000002zm-10,-1l8,0l0,-2.000002l-8,0l0,2.000002z"/>
    </g>
   </g>
   <g transform="matrix(3.85414, 0, 0, 4.29163, -33.0437, -58.5853)" id="svg_25"/>
   <g transform="matrix(3.85414, 0, 0, 4.29163, -33.0437, -58.5853)" id="svg_26"/>
   <g transform="matrix(3.85414, 0, 0, 4.29163, -33.0437, -58.5853)" id="svg_27"/>
   <g transform="matrix(3.85414, 0, 0, 4.29163, -33.0437, -58.5853)" id="svg_28"/>
   <g transform="matrix(3.85414, 0, 0, 4.29163, -33.0437, -58.5853)" id="svg_29"/>
   <g transform="matrix(3.85414, 0, 0, 4.29163, -33.0437, -58.5853)" id="svg_30"/>
   <g transform="matrix(3.85414, 0, 0, 4.29163, -33.0437, -58.5853)" id="svg_31"/>
   <g transform="matrix(3.85414, 0, 0, 4.29163, -33.0437, -58.5853)" id="svg_32"/>
   <g transform="matrix(3.85414, 0, 0, 4.29163, -33.0437, -58.5853)" id="svg_33"/>
   <g transform="matrix(3.85414, 0, 0, 4.29163, -33.0437, -58.5853)" id="svg_34"/>
   <g transform="matrix(3.85414, 0, 0, 4.29163, -33.0437, -58.5853)" id="svg_35"/>
   <g transform="matrix(3.85414, 0, 0, 4.29163, -33.0437, -58.5853)" id="svg_36"/>
   <g transform="matrix(3.85414, 0, 0, 4.29163, -33.0437, -58.5853)" id="svg_37"/>
   <g transform="matrix(3.85414, 0, 0, 4.29163, -33.0437, -58.5853)" id="svg_38"/>
   <g transform="matrix(3.85414, 0, 0, 4.29163, -33.0437, -58.5853)" id="svg_39"/>
  </g>
 </g>
</svg>