<svg width="108" height="35" xmlns="http://www.w3.org/2000/svg">
 <!-- Created with Method Draw - http://github.com/duopixel/Method-Draw/ -->
 <g>
  <title>background</title>
  <rect fill="#fff" id="canvas_background" height="37" width="110" y="-1" x="-1"/>
  <g display="none" overflow="visible" y="0" x="0" height="100%" width="100%" id="canvasGrid">
   <rect fill="url(#gridpattern)" stroke-width="0" y="0" x="0" height="100%" width="100%"/>
  </g>
 </g>
 <g>
  <title>Layer 1</title>
  <text style="cursor: move;" transform="matrix(0.608033, 0, 0, 0.603125, -2.52287, -7.4122)" xml:space="preserve" text-anchor="start" font-family="Helvetica, Arial, sans-serif" font-size="24" id="svg_1" y="49.604896" x="5.81127" stroke-width="0" stroke="#000" fill="#306856">点击加载验证码</text>
  <path d="m16.306576,29.933207" id="svg_2" stroke-width="0" fill="none"/>
  <polyline stroke-linecap="round" id="svg_3" points="27.558344393968582,33.05869813263416 27.558344393968582,32.93367847800255 " stroke-width="0" fill="none"/>
  <path d="m42.810741,30.808344c0.125019,0 0.375061,0 0.50008,0c0.125019,0 0.250038,-0.125019 0.375057,-0.250038l0.250042,-0.25004" id="svg_4" stroke-width="0" fill="none"/>
  <path d="m47.561489,28.808029c0,0 0.125019,0 0.50008,0l0.625095,0l0.750118,0.125021l0.375061,0" id="svg_5" stroke-width="0" fill="none"/>
  <polyline stroke-linecap="round" id="svg_7" points="29.308619558811188,28.93304952979088 29.558658868074417,28.808029875159264 " stroke-width="0" fill="none"/>
  <polyline stroke-linecap="round" id="svg_8" points="26.93324612081051,31.558462277054787 26.93324612081051,31.308422967791557 26.93324612081051,30.8083443492651 " stroke-width="0" fill="none"/>
  <path d="m28.058422,28.808029c0,0.25004 0,0.375059 0,0.50008c0,0 0,0.500078 0,0.500078c0,0.250038 0.375059,0.500078 0.375059,0.625097c0,0.125021 -0.047842,0.259556 0,0.375059c0.067661,0.163347 0.125021,0.375059 0.125021,0.500078l0,0.125021l0,0.125019l0.125019,0.25004" id="svg_9" stroke-width="0" fill="none"/>
  <polyline stroke-linecap="round" id="svg_10" points="38.560074001550674,44.93556532263756 38.560074001550674,44.81054566800594 " stroke-width="0" fill="none"/>
  <path id="svg_11" d="m12.995785,29.993277l0.569134,0l0.175866,-0.540674l0.175867,0.540674l0.569133,0l-0.460438,0.334152l0.175876,0.540674l-0.460438,-0.33416l-0.460438,0.33416l0.175876,-0.540674l-0.460438,-0.334152l0,0z" stroke-width="0" fill="#1A333F"/>
  <path id="svg_12" d="m25.310844,32.107986l0.569134,0l0.175867,-0.540676l0.175867,0.540676l0.569134,0l-0.460438,0.334148l0.175875,0.540676l-0.460438,-0.33416l-0.460438,0.33416l0.175877,-0.540676l-0.46044,-0.334148l0,0z" stroke-width="0" fill="#1A333F"/>
  <path id="svg_13" d="m9.885921,6.731496l0.569134,0l0.175866,-0.540675l0.175867,0.540675l0.569133,0l-0.460438,0.334151l0.175876,0.540674l-0.460438,-0.33416l-0.460438,0.33416l0.175876,-0.540674l-0.460438,-0.334151l0,0z" stroke-width="0" fill="#1A333F"/>
  <path id="svg_14" d="m24.440083,6.607101l0.569134,0l0.175867,-0.540675l0.175867,0.540675l0.569134,0l-0.460438,0.334151l0.175875,0.540674l-0.460438,-0.33416l-0.460438,0.33416l0.175877,-0.540674l-0.46044,-0.334151l0,0z" stroke-width="0" fill="#1A333F"/>
  <path id="svg_15" d="m6.029689,30.739645l0.569133,0l0.175867,-0.540674l0.175867,0.540674l0.569133,0l-0.460438,0.334152l0.175876,0.540674l-0.460438,-0.33416l-0.460438,0.33416l0.175876,-0.540674l-0.460438,-0.334152l0,0z" stroke-width="0" fill="#E6C36A"/>
  <path id="svg_16" d="m93.727844,31.237223l0.569138,0l0.175865,-0.540674l0.175865,0.540674l0.569138,0l-0.460442,0.334152l0.17588,0.540674l-0.460442,-0.33416l-0.460442,0.33416l0.17588,-0.540674l-0.460442,-0.334152l0,0z" stroke-width="0" fill="#E6C36A"/>
  <path id="svg_17" d="m60.887691,31.486012l0.569134,0l0.175865,-0.540674l0.175865,0.540674l0.569134,0l-0.460438,0.334152l0.175877,0.540672l-0.460438,-0.33416l-0.460438,0.33416l0.175877,-0.540672l-0.460438,-0.334152l0,0z" stroke-opacity="null" stroke-width="0" stroke="null" fill="#884D58"/>
  <path id="svg_18" d="m39.367432,31.610407l0.569134,0l0.175865,-0.540674l0.175865,0.540674l0.569134,0l-0.460438,0.334152l0.175877,0.540674l-0.460438,-0.33416l-0.460438,0.33416l0.175877,-0.540674l-0.460438,-0.334152l0,0z" stroke-opacity="null" stroke-width="0" stroke="null" fill="#CE7975"/>
  <path id="svg_19" d="m46.831104,4.367999l0.569134,0l0.175865,-0.540674l0.175865,0.540674l0.569134,0l-0.460438,0.334151l0.175877,0.540675l-0.460438,-0.33416l-0.460438,0.33416l0.175877,-0.540675l-0.460438,-0.334151l0,0z" stroke-opacity="null" stroke-width="0" stroke="null" fill="#8CD79F"/>
  <path id="svg_20" d="m67.853783,3.248448l0.569138,0l0.175865,-0.540674l0.175865,0.540674l0.569138,0l-0.460442,0.334151l0.17588,0.540674l-0.460442,-0.334161l-0.460442,0.334161l0.17588,-0.540674l-0.460442,-0.334151l0,0z" stroke-opacity="null" stroke-width="0" stroke="null" fill="#8CD79F"/>
  <path id="svg_21" d="m75.815025,28.500544l0.569138,0l0.175865,-0.540674l0.175865,0.540674l0.569138,0l-0.460442,0.334152l0.17588,0.540674l-0.460442,-0.33416l-0.460442,0.33416l0.17588,-0.540674l-0.460442,-0.334152l0,0z" stroke-opacity="null" stroke-width="0" stroke="null" fill="#62612C"/>
  <path id="svg_22" d="m48.323837,29.246908l0.569134,0l0.175865,-0.540674l0.175865,0.540674l0.569134,0l-0.460438,0.334152l0.175877,0.540674l-0.460438,-0.33416l-0.460438,0.33416l0.175877,-0.540674l-0.460438,-0.334152l0,0z" stroke-opacity="null" stroke-width="0" stroke="null" fill="#619E73"/>
  <path id="svg_23" d="m88.503273,4.11921l0.569138,0l0.175865,-0.540674l0.175865,0.540674l0.569138,0l-0.460442,0.334151l0.17588,0.540675l-0.460442,-0.33416l-0.460442,0.33416l0.17588,-0.540675l-0.460442,-0.334151l0,0z" stroke-opacity="null" stroke-width="0" stroke="null" fill="#884D58"/>
 </g>
</svg>